<svg xmlns="http://www.w3.org/2000/svg" viewBox="0 0 96 96"><defs><style>.cls-1{fill:none;stroke:#231f20;stroke-linecap:round;stroke-linejoin:round;stroke-width:4px;}</style></defs><g id="Childcare"><circle class="cls-1" cx="62.63" cy="85.64" r="7.36"/><circle class="cls-1" cx="32.63" cy="85.64" r="7.36"/><path class="cls-1" d="M46.78,46.14,40,28.17a3.36,3.36,0,0,0-3-1.87H15.35A3.35,3.35,0,0,0,12,29.65h0A3.35,3.35,0,0,0,15.35,33H32.69a3.35,3.35,0,0,1,3.13,2.16L39.18,44a3.35,3.35,0,0,0,3.13,2.16h4.47"/><path class="cls-1" d="M65.62,5H59.05V47.6H12v9.78a16.19,16.19,0,0,0,16.38,16H65.62A16.19,16.19,0,0,0,82,57.38V21A16.19,16.19,0,0,0,65.62,5Z"/></g></svg>