<?xml version="1.0" encoding="utf-8"?>
<!-- Generator: Adobe Illustrator 24.2.3, SVG Export Plug-In . SVG Version: 6.00 Build 0)  -->
<svg version="1.1" id="Layer_1" xmlns="http://www.w3.org/2000/svg" xmlns:xlink="http://www.w3.org/1999/xlink" x="0px" y="0px"
	 viewBox="0 0 96 96" style="enable-background:new 0 0 96 96;" xml:space="preserve">
<style type="text/css">
	.st0{fill:none;stroke:#FFFFFF;stroke-width:4;stroke-linecap:round;stroke-linejoin:round;}
</style>
<g id="Childcare">
	<circle class="st0" cx="62.6" cy="85.6" r="7.4"/>
	<circle class="st0" cx="32.6" cy="85.6" r="7.4"/>
	<path class="st0" d="M46.8,46.1l-6.8-18c-0.6-1.1-1.7-1.9-3-1.9H15.4c-1.9,0-3.4,1.5-3.4,3.4l0,0l0,0c0,1.9,1.5,3.4,3.3,3.4h0h17.3
		c1.4,0,2.6,0.9,3.1,2.2l3.4,8.8c0.5,1.3,1.7,2.2,3.1,2.2L46.8,46.1"/>
	<path class="st0" d="M65.6,5H59v42.6H12v9.8c0.1,8.9,7.4,16.1,16.4,16c0,0,0,0,0,0h37.2c8.9,0.1,16.3-7.1,16.4-16c0,0,0,0,0,0V21
		C81.9,12.1,74.6,4.9,65.6,5C65.6,5,65.6,5,65.6,5z"/>
</g>
</svg>
