<?xml version="1.0" encoding="utf-8"?>
<!-- Generator: Adobe Illustrator 24.2.3, SVG Export Plug-In . SVG Version: 6.00 Build 0)  -->
<svg version="1.1" id="Layer_1" xmlns="http://www.w3.org/2000/svg" xmlns:xlink="http://www.w3.org/1999/xlink" x="0px" y="0px"
	 viewBox="0 0 64 64" style="enable-background:new 0 0 64 64;" xml:space="preserve">
<style type="text/css">
	.st0{fill:none;stroke:#FFFFFF;stroke-width:2.7005;stroke-linecap:round;stroke-linejoin:round;stroke-miterlimit:10;}
</style>
<g>
	<polygon class="st0" points="32.2,17.6 1.8,17.6 1.8,47.3 32.2,47.3 28.1,37.2 34.2,29.1 38.9,17.6 	"/>
	<polygon class="st0" points="43.6,17.6 37.6,30.4 32.2,37.2 36.2,47.3 62.5,47.3 62.5,17.6 	"/>
	<path class="st0" d="M37.2,21.7l-27.4,0c0,0,1.4,6.1-4.1,4.7v12.8c0,0,4.7,0,4.1,4.7h20"/>
	<path class="st0" d="M41.7,21.7l12.7,0c0,0-1.4,4.7,4.1,4.7v12.2c0,0-5.4,0-2.7,5.4H34.9"/>
	<path class="st0" d="M39,27.4c1.2,1.5,1.9,3.3,1.9,5.4c0,4.2-3.1,7.7-7.2,8.4"/>
	<path class="st0" d="M29.5,40.7c-3.2-1.2-5.5-4.3-5.5-7.9c0-4.7,3.8-8.4,8.4-8.4c1.2,0,2.3,0.2,3.3,0.7"/>
</g>
</svg>
