<?xml version="1.0" encoding="utf-8"?>
<!-- Generator: Adobe Illustrator 24.2.3, SVG Export Plug-In . SVG Version: 6.00 Build 0)  -->
<svg version="1.1" id="Layer_1" xmlns="http://www.w3.org/2000/svg" xmlns:xlink="http://www.w3.org/1999/xlink" x="0px" y="0px"
	 viewBox="0 0 96 96" style="enable-background:new 0 0 96 96;" xml:space="preserve">
<style type="text/css">
	.st0{fill:none;stroke:#FFFFFF;stroke-width:4;stroke-miterlimit:10;}
</style>
<g id="Transportation">
	<path class="st0" d="M52.5,82.2V83c0,2.5,0,5.1,0,7.6c0,1.4-0.5,1.9-1.9,1.9c-2.1,0-4.2,0-6.3,0c-0.9,0.1-1.7-0.5-1.8-1.4
		c0-0.1,0-0.3,0-0.4c0-2.6,0-5.1,0-7.7c0-0.7-0.2-1-0.9-1.1c-6-1-11.6-3.5-16.2-7.5c-0.5-0.4-1-0.9-1.4-1.4c-0.5-0.5-0.6-1.4-0.1-2
		c1.7-2.2,3.4-4.5,5.1-6.7c0.5-0.7,1.5-0.9,2.2-0.4c0.1,0.1,0.2,0.2,0.3,0.2c3.8,3.5,8.5,5.8,13.5,6.6c3.2,0.6,6.5-0.1,9.3-1.8
		c3.7-2.3,5.2-8.2,0.2-11.6c-2.4-1.4-4.8-2.7-7.4-3.7c-3.1-1.4-6.2-2.5-9.3-3.9c-3.5-1.5-6.6-3.7-9.2-6.6c-3.1-3.5-4.5-8.2-3.9-12.8
		c0.6-6.4,4.2-10.9,9.4-14.2c2.3-1.4,4.9-2.4,7.5-2.9c0.6-0.1,0.7-0.3,0.7-0.9c0-2.6,0-5.2,0-7.8c0-1.5,0.6-2.1,2.1-2.1h6
		c1.4,0,2,0.5,2,2v8.4c1,0.2,2,0.3,3,0.5c4.1,0.9,8,2.6,11.4,5.2c2.2,1.7,2.2,1.9,1,4.3c-1.1,1.9-2.1,3.9-3.2,5.8
		c-0.8,1.4-1.7,1.5-3,0.5c-3.9-3-8.1-5-13.1-5.2c-2.8-0.2-5.6,0.5-8,2.1c-2.4,1.5-3.6,4.5-2.9,7.3c0.3,1,0.8,2,1.6,2.7
		c1.5,1.5,3.3,2.7,5.2,3.5c3.3,1.4,6.7,2.7,10,4.1c3.8,1.4,7.3,3.5,10.4,6c4,3.4,5.6,7.8,5.5,12.9c-0.2,9.9-7.6,17.5-16.9,19.3
		L52.5,82.2z"/>
</g>
</svg>
