<svg xmlns="http://www.w3.org/2000/svg" viewBox="0 0 96 96"><defs><style>.cls-1{fill:none;stroke:#000;stroke-miterlimit:10;stroke-width:4px;}</style></defs><g id="Transportation"><path class="cls-1" d="M52.5,82.17V83c0,2.53,0,5.06,0,7.59,0,1.38-.55,1.92-1.93,1.92-2.09,0-4.18,0-6.28,0a1.62,1.62,0,0,1-1.82-1.82c0-2.55,0-5.11,0-7.66,0-.72-.19-1-.89-1.08a32.91,32.91,0,0,1-16.16-7.47A11.91,11.91,0,0,1,24,73.11a1.47,1.47,0,0,1-.07-2c1.69-2.25,3.39-4.49,5.12-6.71a1.59,1.59,0,0,1,2.49-.17,25.92,25.92,0,0,0,13.53,6.55A13.28,13.28,0,0,0,54.37,69c3.71-2.33,5.24-8.23.19-11.62a50.91,50.91,0,0,0-7.37-3.73c-3.06-1.38-6.22-2.51-9.26-3.92a26.42,26.42,0,0,1-9.19-6.56,16.41,16.41,0,0,1-3.92-12.79C25.39,24,29,19.48,34.2,16.19a22.24,22.24,0,0,1,7.54-2.92c.57-.11.74-.34.74-.92,0-2.6,0-5.21,0-7.82,0-1.55.56-2.09,2.1-2.1h6c1.44,0,2,.53,2,2v8.45c1,.18,2,.3,3,.52A28.67,28.67,0,0,1,67,18.59c2.15,1.67,2.24,1.94,1,4.3q-1.6,2.92-3.23,5.82c-.78,1.4-1.74,1.55-3,.55-3.86-3-8.13-5-13.09-5.16a12.91,12.91,0,0,0-8,2.08,6.63,6.63,0,0,0-2.92,7.26,5.62,5.62,0,0,0,1.56,2.71,16.11,16.11,0,0,0,5.25,3.5c3.34,1.37,6.71,2.67,10,4.08a38.34,38.34,0,0,1,10.43,6c4,3.43,5.57,7.83,5.49,12.93C70.34,72.53,62.91,80.15,53.54,82Z"/></g></svg>