<?xml version="1.0" encoding="UTF-8"?>
<svg width="300px" height="131px" viewBox="0 0 300 131" version="1.1" xmlns="http://www.w3.org/2000/svg" xmlns:xlink="http://www.w3.org/1999/xlink">
    <title>Group 7</title>
    <g id="Spend-Plan" stroke="none" stroke-width="1" fill="none" fill-rule="evenodd">
        <g id="Updated-Spend-Page-Copy-2" transform="translate(-56.000000, -2015.000000)">
            <g id="Group-7" transform="translate(56.000000, 2015.000000)">
                <polygon id="Fill-1" fill="#009E63" points="0 131 300 131 300 0 0 0"></polygon>
                <g id="Group-6" transform="translate(132.000000, 37.000000)" fill="#FEFEFE">
                    <path d="M24,0.886560796 L24,70.7025405 C25.9261105,72.4324865 28.5742455,72.4324865 30.499644,70.7025405 L30.499644,40.5440154 C30.499644,40.5440154 37,29.8429057 37,18.1689679 C37,6.03888376 28.017418,1.30263454 24.9861971,0.0501502674 C24.5027113,-0.150213111 24,0.274386729 24,0.886560796" id="Fill-2"></path>
                    <path d="M8.07536948,5.0962263 L7.89969326,5.40927088 C7.55049197,6.03365407 7.36334303,6.76636604 7.36334303,7.51613765 L7.36334303,14.9601159 C7.36334303,15.6715033 7.06505199,16.3359767 6.56670517,16.7309076 L6.12930725,17.0780715 C5.42014899,17.640187 4.47508266,17.5292992 3.87204717,16.8119409 C3.49272995,16.3607132 3.30414691,15.7303591 3.3572083,15.0957402 L4.03123133,3.17872164 C4.0699518,2.722376 3.97386767,2.2643244 3.76018803,1.88304122 L3.75947098,1.88304122 C3.12273433,0.746015547 1.73166554,0.699954492 1.04186751,1.79347806 C0.365693343,2.86653004 0,4.17159327 0,5.51333474 L0,15.1255945 C0,20.9651127 5.72776162,23.8848718 5.72776162,23.8848718 L5.72776162,69.6294704 L7.16687249,70.4850118 C8.32131618,71.1716627 9.67868382,71.1716627 10.8331275,70.4850118 L12.2729554,69.6294704 L12.2729554,23.8848718 C12.2729554,23.8848718 18,20.9651127 18,15.1255945 L18,5.51248176 C18,4.17159327 17.6335896,2.86653004 16.9574154,1.79347806 L16.9552643,1.78921314 C16.2669004,0.698248527 14.8758316,0.746868529 14.240529,1.88218824 C14.239812,1.88304122 14.239812,1.88304122 14.239812,1.88304122 C14.0261323,2.2643244 13.9300482,2.722376 13.9680516,3.17872164 L14.6427917,15.0957402 C14.6958531,15.7303591 14.50727,16.3607132 14.1272358,16.8119409 C13.5249173,17.5292992 12.579851,17.640187 11.8706927,17.0780715 L11.4332948,16.7309076 C10.934948,16.3359767 10.6359399,15.6715033 10.6359399,14.9601159 L10.6359399,7.89230294 C10.6359399,6.89772534 10.3885591,5.92447231 9.92463052,5.0962263 C9.48508146,4.3114824 8.51491854,4.3114824 8.07536948,5.0962263" id="Fill-4"></path>
                </g>
            </g>
        </g>
    </g>
</svg>