<?xml version="1.0" encoding="utf-8"?>
<!-- Generator: Adobe Illustrator 24.2.3, SVG Export Plug-In . SVG Version: 6.00 Build 0)  -->
<svg version="1.1" id="Layer_1" xmlns="http://www.w3.org/2000/svg" xmlns:xlink="http://www.w3.org/1999/xlink" x="0px" y="0px"
	 viewBox="0 0 64 64" style="enable-background:new 0 0 64 64;" xml:space="preserve">
<style type="text/css">
	.st0{fill:none;stroke:#FFFFFF;stroke-width:2.6837;stroke-miterlimit:10;}
	.st1{fill:none;stroke:#FFFFFF;stroke-width:2.6837;stroke-linecap:round;stroke-linejoin:round;stroke-miterlimit:10;}
</style>
<g>
	<path class="st0" d="M32.2,62.5c20.2,0.6,28.6-37.8,30-44.6c0.1-0.5-0.3-1-0.8-0.9c-13.8,1.6-26-10.7-28.6-13.6
		c-0.3-0.3-0.8-0.3-1.1,0C29,6.4,16.8,18.7,3,17.1C2.5,17,2.1,17.5,2.2,18C3.5,24.8,12,63.2,32.2,62.5z"/>
	<path class="st0" d="M32.2,56.6c16,0.5,22.8-29.5,24-35.5c0.1-0.5-0.3-0.9-0.8-0.9C44.5,21.4,35,11.9,32.7,9.4
		c-0.3-0.3-0.8-0.3-1.1,0c-2.3,2.5-11.8,12-22.6,10.8c-0.5-0.1-0.9,0.4-0.8,0.9C9.4,27,16.2,57.1,32.2,56.6z"/>
	<polygon class="st1" points="28.5,24.6 35.2,24.6 35.2,31.3 41.2,31.3 41.2,37.4 35.2,37.4 35.2,43.4 28.5,43.4 28.5,37.4 
		22.4,37.4 22.4,31.3 28.5,31.3 	"/>
</g>
</svg>
