<?xml version="1.0" encoding="utf-8"?>
<!-- Generator: Adobe Illustrator 24.2.3, SVG Export Plug-In . SVG Version: 6.00 Build 0)  -->
<svg version="1.1" id="Layer_1" xmlns="http://www.w3.org/2000/svg" xmlns:xlink="http://www.w3.org/1999/xlink" x="0px" y="0px"
	 viewBox="0 0 96 96" style="enable-background:new 0 0 96 96;" xml:space="preserve">
<style type="text/css">
	.st0{fill:none;stroke:#FFFFFF;stroke-width:4;stroke-linecap:round;stroke-linejoin:round;}
	.st1{fill:#FFFFFF;}
	.st2{fill:none;stroke:#FFFFFF;stroke-width:4;stroke-miterlimit:10;}
</style>
<g id="Transportation">
	<circle class="st0" cx="48" cy="16" r="7"/>
</g>
<g id="Wallet">
	<line class="st0" x1="33.8" y1="28" x2="33.8" y2="39"/>
	<line class="st0" x1="43" y1="28" x2="43" y2="39"/>
	<line class="st0" x1="52" y1="28" x2="52" y2="39"/>
	<line class="st0" x1="62" y1="28" x2="62" y2="39"/>
	<path class="st1" d="M49,71.9v2c0,0.3-0.1,0.4-0.5,0.4h-1.5c-0.3,0-0.4-0.2-0.4-0.4c0-0.6,0-1.2,0-1.8c0-0.2,0-0.2-0.2-0.2
		c-1.4-0.2-2.7-0.8-3.8-1.7c-0.1-0.1-0.2-0.2-0.3-0.3c-0.1-0.1-0.1-0.3,0-0.5c0.4-0.5,0.8-1,1.2-1.6c0.1-0.2,0.4-0.2,0.5-0.1
		c0,0,0,0,0.1,0.1c0.9,0.8,2,1.3,3.2,1.5c0.7,0.1,1.5,0,2.2-0.4c0.7-0.4,1-1.4,0.5-2.2c-0.1-0.2-0.3-0.4-0.5-0.5
		c-0.6-0.3-1.1-0.6-1.7-0.9c-0.7-0.3-1.5-0.6-2.2-0.9c-0.8-0.4-1.5-0.9-2.1-1.5c-0.7-0.8-1.1-1.9-0.9-3c0.1-1.4,1-2.6,2.2-3.3
		c0.5-0.3,1.1-0.6,1.8-0.7c0.1,0,0.2-0.1,0.2-0.2c0-0.6,0-1.2,0-1.8c0-0.4,0.1-0.5,0.5-0.5h1.4c0.3,0,0.5,0.1,0.5,0.5v2
		c0.2,0,0.5,0.1,0.7,0.1c1,0.2,1.9,0.5,2.7,1.1c0.5,0.4,0.5,0.5,0.2,1l-0.8,1.4c-0.2,0.3-0.4,0.4-0.7,0.1c-0.8-0.7-1.9-1.1-3-1.2
		c-0.7,0-1.3,0.1-1.9,0.5c-0.6,0.4-0.8,1-0.7,1.7c0.1,0.2,0.2,0.5,0.4,0.6c0.4,0.3,0.8,0.6,1.2,0.8l2.3,1c0.9,0.3,1.7,0.8,2.4,1.4
		c0.9,0.7,1.3,1.9,1.3,3c-0.1,2.3-1.8,4.2-4,4.5L49,71.9z"/>
	<path class="st2" d="M29.4,28h37.3c1.9,0,3.4,1.5,3.4,3.4v4.2c0,1.9-1.5,3.4-3.4,3.4H29.4c-1.9,0-3.4-1.5-3.4-3.4v-4.2
		C26,29.5,27.5,28,29.4,28z"/>
	<path class="st2" d="M33.2,39h29.6c4,0,7.2,3.2,7.2,7.2v35.6c0,4-3.2,7.2-7.2,7.2H33.2c-4,0-7.2-3.2-7.2-7.2V46.2
		C26,42.2,29.2,39,33.2,39z"/>
</g>
</svg>
