<svg xmlns="http://www.w3.org/2000/svg" viewBox="0 0 96 96"><defs><style>.cls-1,.cls-2{fill:none;stroke:#231f20;stroke-width:4px;}.cls-1{stroke-linecap:round;stroke-linejoin:round;}.cls-2{stroke-miterlimit:10;}</style></defs><g id="Transportation"><circle class="cls-1" cx="48" cy="16" r="7"/></g><g id="Wallet"><line class="cls-1" x1="33.83" y1="28" x2="33.83" y2="39"/><line class="cls-1" x1="43" y1="28" x2="43" y2="39"/><line class="cls-1" x1="52" y1="28" x2="52" y2="39"/><line class="cls-1" x1="62" y1="28" x2="62" y2="39"/><path d="M49,71.87v2c0,.32-.13.44-.45.45H47.09c-.29,0-.43-.15-.43-.43,0-.6,0-1.19,0-1.79,0-.16,0-.22-.2-.25a7.64,7.64,0,0,1-3.78-1.74,2.57,2.57,0,0,1-.33-.33.34.34,0,0,1,0-.48c.39-.52.79-1,1.19-1.56a.37.37,0,0,1,.58,0,6,6,0,0,0,3.16,1.52,3.07,3.07,0,0,0,2.17-.41,1.58,1.58,0,0,0,0-2.71,12.59,12.59,0,0,0-1.72-.87c-.71-.32-1.45-.59-2.16-.91a6.27,6.27,0,0,1-2.14-1.53,3.82,3.82,0,0,1-.92-3,4.25,4.25,0,0,1,2.19-3.3,5.32,5.32,0,0,1,1.76-.68c.13,0,.17-.08.17-.21,0-.61,0-1.22,0-1.83,0-.36.13-.49.49-.49h1.39c.33,0,.46.13.46.46v2c.24,0,.47.07.69.12A6.71,6.71,0,0,1,52.38,57c.5.39.52.45.22,1l-.75,1.36c-.18.33-.41.36-.71.13a5.19,5.19,0,0,0-3-1.21,3.07,3.07,0,0,0-1.86.49,1.55,1.55,0,0,0-.68,1.69,1.4,1.4,0,0,0,.36.64,3.87,3.87,0,0,0,1.23.81l2.34.95a9,9,0,0,1,2.43,1.39,3.69,3.69,0,0,1,1.29,3,4.72,4.72,0,0,1-4,4.51Z"/><rect class="cls-2" x="26" y="28" width="44" height="10.95" rx="3.37"/><rect class="cls-2" x="26" y="38.95" width="44" height="50.05" rx="7.21"/></g></svg>