<?xml version="1.0" encoding="utf-8"?>
<!-- Generator: Adobe Illustrator 24.2.3, SVG Export Plug-In . SVG Version: 6.00 Build 0)  -->
<svg version="1.1" id="Layer_1" xmlns="http://www.w3.org/2000/svg" xmlns:xlink="http://www.w3.org/1999/xlink" x="0px" y="0px"
	 viewBox="0 0 96 96" style="enable-background:new 0 0 96 96;" xml:space="preserve">
<style type="text/css">
	.st0{fill:none;stroke:#FFFFFF;stroke-width:4;stroke-linecap:round;stroke-linejoin:round;}
	.st1{fill:#FFFFFF;}
</style>
<g id="Wallet">
	<path class="st0" d="M16.1,21.5h63.8c7.4,0,13.3,6,13.3,13.3v38.4c0,7.4-6,13.3-13.3,13.3H16.1c-7.4,0-13.3-6-13.3-13.3V34.8
		C2.7,27.5,8.7,21.5,16.1,21.5z"/>
	<path class="st0" d="M70.5,44H93l0,0v19l0,0H70.5c-5.2,0-9.5-4.3-9.5-9.5l0,0l0,0C61,48.3,65.3,44,70.5,44z"/>
	<circle class="st1" cx="72" cy="53" r="5"/>
	<path class="st1" d="M25.5,21.5l50-10.2l2.5,9.2c0.1,0.4,0.3,0.7,0.6,1c0.5,0.4,1.2,0.6,1.8,0.4c0.3-0.1,0.5-0.2,0.7-0.4
		c0.6-0.5,0.9-1.3,0.7-2.1l-3-11c-0.2-1-1.3-1.7-2.3-1.5l-64,13c-1.1,0.2-1.8,1.2-1.6,2.3c0,0,0,0.1,0,0.1c0,0,0,0,0,0.1L25.5,21.5z
		"/>
</g>
</svg>
