<svg xmlns="http://www.w3.org/2000/svg" viewBox="0 0 96 96"><defs><style>.cls-1{fill:none;stroke:#231f20;stroke-linecap:round;stroke-linejoin:round;stroke-width:4px;}.cls-2{fill:#231f20;}</style></defs><g id="Wallet"><rect class="cls-1" x="2.74" y="21.5" width="90.43" height="65" rx="13.32"/><path class="cls-1" d="M70.5,44H93a0,0,0,0,1,0,0V63a0,0,0,0,1,0,0H70.5A9.5,9.5,0,0,1,61,53.5v0A9.5,9.5,0,0,1,70.5,44Z"/><circle class="cls-2" cx="72" cy="53" r="5"/><path class="cls-2" d="M25.51,21.5,75.56,11.33l2.51,9.2a2,2,0,0,0,.61,1,2,2,0,0,0,1.85.43,1.91,1.91,0,0,0,.71-.36,2,2,0,0,0,.69-2.1l-3-11A2,2,0,0,0,76.6,7l-64,13A2,2,0,0,0,11,22.4a.19.19,0,0,0,0,.07Z"/></g></svg>