<svg xmlns="http://www.w3.org/2000/svg" viewBox="0 0 1024 256"><defs><style>.cls-1{fill:#71cddd;}.cls-2{fill:#5fb3b7;}.cls-3{fill:none;stroke:#5fb3b7;stroke-miterlimit:10;stroke-width:3px;}</style></defs><g id="Layer_2" data-name="Layer 2"><rect class="cls-1" width="1024" height="256"/><circle class="cls-2" cx="329.93" cy="139.79" r="8.26"/><circle class="cls-2" cx="81.7" cy="143.07" r="8.26"/><circle class="cls-2" cx="188.47" cy="184.36" r="8.26"/><circle class="cls-2" cx="283.37" cy="86.67" r="8.26"/><circle class="cls-2" cx="430.27" cy="167.84" r="8.26"/><circle class="cls-2" cx="661.81" cy="105.36" r="8.26"/><circle class="cls-2" cx="560.39" cy="128" r="8.26"/><circle class="cls-2" cx="970.28" cy="33.74" r="8.26"/><circle class="cls-2" cx="775.67" cy="90.75" r="8.26"/><circle class="cls-2" cx="490" cy="112.52" r="8.26"/></g><g id="Layer_3" data-name="Layer 3"><polyline class="cls-3" points="-9.23 212.92 81.7 143.07 188.47 184.05 283.34 85.69 329.93 139.79 368.59 118.47 429.25 169.29 470.23 147.98 488.26 113.56 534.07 100.44 560.39 128 617.77 66.02 661.81 105.36 775.67 90.61 853.84 66.02 893.18 82.41 1024 0"/></g></svg>