<?xml version="1.0" encoding="UTF-8"?>
<svg width="1918px" height="521px" viewBox="0 0 1918 521" version="1.1" xmlns="http://www.w3.org/2000/svg" xmlns:xlink="http://www.w3.org/1999/xlink">
    <title>Group 55</title>
    <defs>
        <polygon id="path-1" points="0.0102367347 0.0222927273 835.073819 0.0222927273 835.073819 200.239002 0.0102367347 200.239002"></polygon>
        <polygon id="path-3" points="0 0.256670909 835.064801 0.256670909 835.064801 200.472162 0 200.472162"></polygon>
    </defs>
    <g id="Spend-Plan" stroke="none" stroke-width="1" fill="none" fill-rule="evenodd">
        <g id="Updated-Spend-Page-Copy-2" transform="translate(202.000000, -16.000000)">
            <g id="Group-55" transform="translate(-202.000000, 16.000000)">
                <g id="Group-3" transform="translate(1082.000000, 0.000000)">
                    <mask id="mask-2" fill="white">
                        <use xlink:href="#path-1"></use>
                    </mask>
                    <g id="Clip-2"></g>
                    <path d="M815.127298,180.298584 C808.64647,180.298584 802.890744,183.390329 799.246954,188.175347 C793.386423,185.188365 786.756919,183.492656 779.726476,183.492656 C772.582697,183.492656 765.852044,185.243184 759.92205,188.321529 C755.74205,177.113038 745.836791,168.699056 733.759881,166.622056 C726.388213,154.691184 715.209455,145.361129 701.916324,140.323947 C702.914406,136.074929 703.444522,131.646838 703.444522,127.093275 C703.444522,95.2731473 677.640639,69.4781473 645.80805,69.4781473 C637.705187,69.4781473 629.994732,71.1519291 622.99963,74.1681473 C619.067018,71.0861473 614.33984,68.9701655 609.171508,68.1954018 C608.367193,62.9852382 606.854837,58.0101836 604.73559,53.3676927 C595.796727,33.7793291 576.047141,20.1564018 553.102231,20.1564018 C545.790278,20.1564018 538.808581,21.5548745 532.388686,24.0728564 C522.493176,9.55700182 505.825578,0.0222927273 486.927834,0.0222927273 C456.909829,0.0222927273 432.526901,24.0740745 431.974849,53.9487655 C396.431444,62.5113655 369.700161,93.6748927 367.859986,131.37762 C360.134907,127.353965 351.359345,125.067438 342.045135,125.067438 C331.122295,125.067438 320.937963,128.205475 312.324482,133.614202 L312.324482,133.587402 C312.324482,102.687002 287.266417,77.6375291 256.352697,77.6375291 C229.397181,77.6375291 206.898301,96.6862382 201.578855,122.05122 C194.602033,120.099693 187.244989,119.053275 179.645432,119.053275 C146.903724,119.053275 118.690552,138.423584 105.839794,166.322384 C98.6423942,160.812547 89.6486915,157.530765 79.8847965,157.530765 C66.2845633,157.530765 54.1784058,163.890893 46.3533971,173.78862 C41.7761143,171.083038 36.439607,169.523765 30.7362834,169.523765 C18.4802309,169.523765 7.90227172,176.698856 2.97035918,187.074111 C1.07412595,191.064875 0.0102367347,195.527075 0.0102367347,200.239002 L20.3362484,200.239002 L37.1610531,200.239002 L61.46233,200.239002 L98.4279102,200.239002 L122.60854,200.239002 L260.862954,200.239002 L263.564721,200.239002 L289.463659,200.239002 L394.625391,200.239002 L398.242371,200.239002 L469.38524,200.239002 L505.188219,200.239002 L615.114907,200.239002 L654.556802,200.239002 L717.088627,200.239002 L743.287356,200.239002 L745.657648,200.239002 L762.06689,200.239002 L795.180289,200.239002 L813.795304,200.239002 L835.074307,200.239002 C835.074307,189.226638 826.143974,180.298584 815.127298,180.298584" id="Fill-1" fill="#EBF7FF" mask="url(#mask-2)"></path>
                </g>
                <g id="Group-6" transform="translate(0.000000, 17.000000)">
                    <mask id="mask-4" fill="white">
                        <use xlink:href="#path-3"></use>
                    </mask>
                    <g id="Clip-5"></g>
                    <path d="M815.116574,180.532962 C808.636964,180.532962 802.88002,183.624707 799.237448,188.409725 C793.375699,185.422744 786.746195,183.727035 779.71697,183.727035 C772.573192,183.727035 765.84132,185.477562 759.912545,188.554689 C755.732545,177.347416 745.826066,168.933435 733.750376,166.856435 C726.378708,154.925562 715.198731,145.595507 701.906819,140.557107 C702.9049,136.309307 703.435017,131.881216 703.435017,127.327653 C703.435017,95.5075255 677.629915,69.7125255 645.798545,69.7125255 C637.695682,69.7125255 629.985227,71.3863073 622.990125,74.4025255 C619.057513,71.3205255 614.330335,69.2045436 609.162002,68.4285618 C608.356469,63.2196164 606.845332,58.2433436 604.726084,53.6008527 C595.787221,34.0137073 576.037635,20.39078 553.092725,20.39078 C545.780772,20.39078 538.797857,21.7892527 532.37918,24.3072345 C522.48367,9.79016182 505.816072,0.256670909 486.91711,0.256670909 C456.899104,0.256670909 432.517396,24.3084527 431.965343,54.1819255 C396.42072,62.7457436 369.690655,93.9092709 367.85048,131.611998 C360.124183,127.588344 351.349839,125.301816 342.035629,125.301816 C331.11279,125.301816 320.928457,128.439853 312.314976,133.84858 C312.314976,133.838835 312.314976,133.830307 312.314976,133.82178 C312.314976,102.92138 287.255693,77.8719073 256.343192,77.8719073 C229.387676,77.8719073 206.888795,96.9206164 201.569349,122.285598 C194.591308,120.334071 187.235483,119.286435 179.635927,119.286435 C146.892999,119.286435 118.681046,138.656744 105.829069,166.556762 C98.6328886,161.045707 89.639186,157.765144 79.875291,157.765144 C66.2750577,157.765144 54.1676816,164.125271 46.3438915,174.022998 C41.7666087,171.317416 36.4301015,169.758144 30.7267778,169.758144 C18.4695067,169.758144 7.89276618,176.933235 2.96085364,187.308489 C1.06462041,191.298035 -0.000487463557,195.761453 -0.000487463557,200.472162 L20.3267429,200.472162 L37.1503289,200.472162 L37.1515475,200.472162 L61.4528245,200.472162 L98.4184047,200.472162 L122.599034,200.472162 L260.853448,200.472162 L263.555215,200.472162 L289.454154,200.472162 L394.615886,200.472162 L398.232865,200.472162 L469.375734,200.472162 L505.177495,200.472162 L615.105402,200.472162 L654.547297,200.472162 L717.079122,200.472162 L743.277851,200.472162 L745.648142,200.472162 L762.057384,200.472162 L795.169565,200.472162 L813.78458,200.472162 L835.064801,200.472162 C835.064801,189.461016 826.13325,180.532962 815.116574,180.532962" id="Fill-4" fill="#EBF7FF" mask="url(#mask-4)"></path>
                </g>
                <path d="M1207.03063,215.081165 C1200.54254,215.081165 1194.78037,218.169564 1191.13249,222.949403 C1185.26417,219.965654 1178.62846,218.27178 1171.59014,218.27178 C1164.43835,218.27178 1157.70015,220.020413 1151.76351,223.095426 C1147.57883,211.899067 1137.66247,203.494193 1125.57202,201.419441 C1118.19209,189.501482 1107.00081,180.181526 1093.69278,175.149796 C1094.69198,170.905377 1095.22269,166.482079 1095.22269,161.933444 C1095.22269,130.147758 1069.38988,104.380677 1037.52162,104.380677 C1029.40967,104.380677 1021.69057,106.052648 1014.68763,109.065601 C1010.75061,105.986937 1006.01814,103.873245 1000.84401,103.09932 C1000.0388,97.8947961 998.524745,92.9251264 996.403122,88.2876604 C987.45424,68.7204987 967.682519,55.1123165 944.711893,55.1123165 C937.391745,55.1123165 930.402223,56.5080587 923.975133,59.024532 C914.068532,44.524389 897.382253,35 878.463329,35 C848.41168,35 824.001424,59.0257488 823.448753,88.8681042 C787.865511,97.4214363 761.104268,128.551233 759.262031,166.213152 C751.528294,162.193852 742.742896,159.9098 733.418247,159.9098 C722.483165,159.9098 712.287418,163.04444 703.664283,168.447313 L703.664283,168.420542 C703.664283,137.553588 678.578134,112.531228 647.629766,112.531228 C620.644039,112.531228 598.119942,131.559319 592.794534,156.896846 C585.808672,154.947432 578.445823,153.902146 570.836528,153.902146 C538.056903,153.902146 509.81333,173.250272 496.946949,201.120092 C489.743923,195.61622 480.740141,192.33799 470.964082,192.33799 C457.348606,192.33799 445.22766,198.691233 437.395101,208.578247 C432.812688,205.875594 427.4702,204.318009 421.760484,204.318009 C409.490695,204.318009 398.90088,211.485334 393.96344,221.849358 C392.065082,225.835803 391,230.293173 391,235 L411.348793,235 L411.350013,235 L428.192455,235 L452.522188,235 L489.529199,235 L513.73693,235 L652.145078,235 L654.849873,235 L680.777839,235 L786.057435,235 L789.678468,235 L860.901073,235 L896.74296,235 L1006.79407,235 L1046.28017,235 L1108.88208,235 L1135.11018,235 L1137.48312,235 L1153.91076,235 L1187.06127,235 L1205.69715,235 L1227,235 C1227,223.999556 1218.05966,215.081165 1207.03063,215.081165" id="Fill-7" fill="#EBF7FF"></path>
                <path d="M1039.02944,213.081165 C1032.54258,213.081165 1026.77919,216.169564 1023.13254,220.949403 C1017.26423,217.965654 1010.62853,216.27178 1003.59022,216.27178 C996.438442,216.27178 989.700255,218.020413 983.763623,221.09421 C979.578945,209.899067 969.661378,201.494193 957.57217,199.419441 C950.192251,187.501482 939.000981,178.181526 925.69297,173.148579 C926.692169,168.905377 927.222879,164.482079 927.222879,159.933444 C927.222879,128.147758 901.388893,102.380677 869.521893,102.380677 C861.40996,102.380677 853.690874,104.052648 846.687943,107.065601 C842.750929,103.986937 838.018459,101.873245 832.844342,101.09932 C832.037907,95.8947961 830.525078,90.9251264 828.403458,86.2876604 C819.45459,66.7204987 799.682898,53.1123165 776.712305,53.1123165 C769.392167,53.1123165 762.402656,54.5080587 755.975575,57.024532 C746.068988,42.5231721 729.382734,33 710.462618,33 C680.412232,33 656.002012,57.0257488 655.449342,86.8681042 C619.864932,95.4214363 593.104948,126.551233 591.262714,164.213152 C583.527768,160.193852 574.743603,157.9098 565.418967,157.9098 C554.483901,157.9098 544.288169,161.04444 535.665047,166.447313 C535.665047,166.437578 535.665047,166.42906 535.665047,166.420542 C535.665047,135.553588 510.577714,110.531228 479.630612,110.531228 C452.644924,110.531228 430.12086,129.559319 424.795459,154.896846 C417.809608,152.947432 410.445549,151.902146 402.837486,151.902146 C370.057909,151.902146 341.814377,171.250272 328.948015,199.120092 C321.743779,193.615003 312.74001,190.33799 302.965186,190.33799 C289.349729,190.33799 277.228801,196.691233 269.396254,206.578247 C264.813847,203.875594 259.471367,202.318009 253.761659,202.318009 C241.490668,202.318009 230.902089,209.485334 225.964656,219.849358 C224.0663,223.835803 223,228.293173 223,233 L243.349983,233 L260.19362,233 L284.522098,233 L321.529055,233 L345.736751,233 L484.145917,233 L486.850708,233 L512.778636,233 L618.058078,233 L621.679106,233 L692.901607,233 L728.743442,233 L838.794394,233 L878.280437,233 L940.882256,233 L967.11031,233 L969.483255,233 L985.910864,233 L1019.06011,233 L1037.69596,233 L1059,233 C1059,221.999556 1050.05845,213.081165 1039.02944,213.081165" id="Fill-9" fill="#EBF7FF"></path>
                <path d="M1476.03063,239.081165 C1469.54376,239.081165 1463.78037,242.169564 1460.13249,246.949403 C1454.26539,243.965654 1447.62846,242.27178 1440.59014,242.27178 C1433.43957,242.27178 1426.70015,244.020413 1420.76473,247.095426 C1416.57883,235.899067 1406.66247,227.494193 1394.57324,225.419441 C1387.19209,213.501482 1376.00081,204.181526 1362.694,199.149796 C1363.6932,194.905377 1364.22269,190.482079 1364.22269,185.933444 C1364.22269,154.147758 1338.38988,128.380677 1306.52162,128.380677 C1298.40967,128.380677 1290.69179,130.052648 1283.68885,133.065601 C1279.75183,129.986937 1275.01936,127.873245 1269.84523,127.09932 C1269.0388,121.894796 1267.52596,116.925126 1265.40434,112.28766 C1256.45424,92.7204987 1236.68374,79.1123165 1213.71311,79.1123165 C1206.39174,79.1123165 1199.40222,80.5080587 1192.97635,83.024532 C1183.06975,68.524389 1166.38225,59 1147.46211,59 C1117.41168,59 1093.00264,83.0257488 1092.44997,112.868104 C1056.86551,121.421436 1030.10549,152.551233 1028.26203,190.213152 C1020.52707,186.193852 1011.7429,183.9098 1002.41947,183.9098 C991.484385,183.9098 981.287418,187.04444 972.664283,192.447313 C972.664283,192.437578 972.665503,192.42906 972.665503,192.420542 C972.665503,161.553588 947.578134,136.531228 916.629766,136.531228 C889.644039,136.531228 867.119942,155.559319 861.794534,180.896846 C854.808672,178.947432 847.445823,177.902146 839.836528,177.902146 C807.058123,177.902146 778.81333,197.250272 765.948169,225.120092 C758.743923,219.61622 749.740141,216.33799 739.965302,216.33799 C726.348606,216.33799 714.22888,222.691233 706.395101,232.578247 C701.812688,229.875594 696.4702,228.318009 690.761704,228.318009 C678.490695,228.318009 667.9021,235.485334 662.96466,245.849358 C661.066302,249.835803 660,254.293173 660,259 L680.350013,259 L697.192455,259 L721.522188,259 L758.527979,259 L782.73693,259 L921.145078,259 L923.851093,259 L949.777839,259 L1055.05865,259 L1058.67969,259 L1129.90229,259 L1165.74418,259 L1275.79529,259 L1315.28017,259 L1377.88208,259 L1404.11018,259 L1406.48312,259 L1422.91198,259 L1456.06127,259 L1474.69715,259 L1496,259 C1496,247.999556 1487.05966,239.081165 1476.03063,239.081165" id="Fill-11" fill="#EBF7FF"></path>
                <path d="M311.525249,227.530119 C333.360199,229.662719 402.897542,147.978171 416.328621,150.026541 C429.759699,152.074911 445.07659,127.323571 453.581639,113.99818 C462.087908,100.672789 478.792035,114.248428 478.792035,114.248428 C478.792035,114.248428 512.596468,89.6789758 521.058852,82.1007396 C529.521236,74.5225035 544.485832,95.7422971 544.485832,95.7422971 C544.485832,95.7422971 605.415728,40.7915399 639.044623,39.2094855 C672.673518,37.627431 684.190748,70.3073537 684.190748,70.3073537 L720.946409,99.405681 L759.339205,134.268253 L819.553541,173.178736 L863.238069,175.526182 L922.032256,179.94031 L967.353918,188.052001 L1024.54145,182.871261 L1054.78027,185.086869 C1054.78027,185.086869 1085.29581,150.907901 1102.11818,149.158608 C1118.93933,147.410536 1154.5418,107.534462 1161.36584,94.1919814 C1168.19109,80.8495006 1188.25847,94.4580986 1188.25847,94.4580986 C1188.25847,94.4580986 1255.76372,58.7300355 1281.10577,41.7400402 C1306.44782,24.7500448 1359.71988,92.325499 1359.71988,92.325499 C1359.71988,92.325499 1368.19567,82.8319515 1391.84329,67.7413981 C1415.48969,52.649624 1563.94834,201.626419 1563.94834,201.626419 C1563.94834,201.626419 1587.69836,173.126245 1611.08145,192.514957 C1634.46577,211.903669 1801.26567,380.217906 1801.26567,380.217906 L1896,521 L37,519.820783 C37,519.820783 142.738354,319.725075 159.603391,312.228627 C176.468427,304.734621 206.648736,314.610254 220.167584,305.166756 C233.686431,295.722037 289.690299,225.397519 311.525249,227.530119" id="Fill-13" fill="#64BC64"></path>
                <path d="M479,114.170902 C479,114.170902 512.801361,89.6279685 521.263282,82.0563162 C529.725202,74.4858834 544.690197,95.6838269 544.690197,95.6838269 C544.690197,95.6838269 605.616754,40.7908724 639.242588,39.2092275 C672.870859,37.6288021 684.386238,70.2750741 684.386238,70.2750741 L721.139885,99.344658 L759.531795,134.170112 L819.741613,173.040529 L863.423747,175.386777 L922.215931,179.79514 L967.53389,187.898479 L1024.71828,182.724293 L1054.95545,184.9364 C1054.95545,184.9364 1085.46931,150.792627 1102.29076,149.045135 C1119.11221,147.298862 1154.71152,107.46385 1161.53518,94.1351076 C1168.36127,80.807585 1188.42633,94.4021702 1188.42633,94.4021702 C1188.42633,94.4021702 1255.9291,58.7096771 1281.26976,41.7371765 C1306.61042,24.7646759 1359.87835,92.2717665 1359.87835,92.2717665 C1359.87835,92.2717665 1368.35367,82.7867752 1392,67.7105412 C1358.95682,102.787205 1274.362,322.66145 1274.362,322.66145 L1158.74989,422.303857 L1104.22035,520 L750.698097,519.778058 C750.698097,519.778058 643.413819,336.827964 633.639095,332.904948 C616.567762,326.05156 507.965804,282.861802 497.74007,264.579597 C487.515554,246.298612 479,114.170902 479,114.170902" id="Fill-15" fill="#20B476"></path>
                <path d="M708,201 C683.726131,176.767559 667,48 667,48 L678.725295,58.6729395 L683.697995,70.2387561 C683.697995,70.2387561 682.480815,119.172092 708,201" id="Fill-17" fill="#009D63"></path>
                <path d="M620,93 C620.107464,225.686293 722.838436,443.591126 809.805129,521 C835.633193,519.97928 819.907993,521.099999 839,520.012206 C704.342367,366.859074 664.509753,291.192863 620,93" id="Fill-19" fill="#009D63"></path>
                <path d="M544.561973,96.0490067 C544.561973,96.0490067 532.0876,81.4127625 529.557431,83.1419905 C527.027263,84.8712185 533.253497,185.243269 545.325039,215.982796 C557.396582,246.721104 624,315 624,315 C624,315 575.119928,269.862028 555.451797,208.428094 C535.783665,146.99416 544.561973,96.0490067 544.561973,96.0490067" id="Fill-21" fill="#009D63"></path>
                <path d="M402.81453,246.194861 C389.444645,237.132339 340.669052,318.295083 333.686838,352.670969 C326.704624,387.045635 337.202921,479 337.202921,479 C337.202921,479 311.105207,376.685678 321.407353,347.445873 C331.709499,318.206068 414.59694,169.769456 420.147623,176.202969 C425.698306,182.635263 422.222428,344.616883 417.57696,366.257436 C412.932709,387.899209 385.666623,438.657629 385.666623,438.657629 C385.666623,438.657629 405.016041,398.026261 409.748011,364.90513 C414.481199,331.784 416.184416,255.257384 402.81453,246.194861" id="Fill-23" fill="#009D63"></path>
                <path d="M1418.45256,212.345373 C1403.94405,205.861166 1353.38403,290.791975 1351.35621,325.976813 C1349.32717,361.16165 1386.58854,454 1386.58854,454 C1386.58854,454 1332.42947,353.806139 1338.4702,323.077747 C1344.51216,292.348136 1419.2632,134.805415 1425.6653,140.131946 C1432.06741,145.457258 1446.4111,256.92567 1444.88749,279.122595 C1443.36387,301.31952 1428.79677,405.314216 1428.79677,405.314216 C1428.79677,405.314216 1430.26422,317.073671 1430.24469,283.537608 C1430.22759,250.001546 1432.96106,218.829581 1418.45256,212.345373" id="Fill-25" fill="#009D63"></path>
                <path d="M318,226 C318,226 251.19669,328.739199 209,433 C215.129135,362.848936 310.718076,227.204347 310.718076,227.204347 L318,226 Z" id="Fill-27" fill="#009D63"></path>
                <path d="M735,112 C735,112 741.633724,114.899887 745.004241,118.406613 C748.375977,121.912118 751.318473,213.754891 767.575974,286.728253 C783.833474,359.700394 869,510 869,510 C869,510 771.640349,341.695454 757.438814,293.013986 C743.2385,244.332518 735,112 735,112" id="Fill-29" fill="#009D63"></path>
                <path d="M1187.99817,95.2885042 C1164.17752,158.727052 1133.28104,224.155292 1109.30942,287.743798 C1071.7888,387.283334 1045.40785,478.47396 1045,521 L1055.91445,520.629371 C1058.91181,470.734638 1080.35235,384.438999 1114.3168,291.620775 C1138.80096,224.711236 1172.75933,155.482827 1197,89 L1187.99817,95.2885042 Z" id="Fill-31" fill="#009D63"></path>
                <path d="M819.736444,173.616336 C819.736444,173.616336 810.89552,230.872119 814.870462,260.538379 C818.845403,290.204638 821.279613,301.697938 836.18473,330.516451 C851.091066,359.334963 935,486 935,486 C935,486 847.306278,378.093793 837.726681,348.690628 C828.147084,319.286244 811.246573,294.908657 807.270412,265.242398 C803.29669,235.576139 804.058523,163.825837 804.058523,163.825837 C811.891389,161.0463 819.425616,165.526203 819.736444,173.616336" id="Fill-33" fill="#009D63"></path>
                <path d="M895,177.667411 L906.461948,179.216797 L929,370 C929,370 926.024183,177.252288 920.932997,176.245005 C915.840579,175.2365 895,177.667411 895,177.667411" id="Fill-35" fill="#009D63"></path>
                <path d="M990,186.247165 L978.563068,187.566953 L960,372 C960,372 968.103462,185.077132 973.188999,184.1713 C978.274535,183.265468 990,186.247165 990,186.247165" id="Fill-37" fill="#009D63"></path>
                <path d="M1054.55729,185.068924 C1056.60241,177.610799 1063.62945,171.782766 1067.16438,172.006216 C1067.16438,172.006216 1068.4597,205.006098 1067.82488,214.580288 C1067.18884,224.1557 1013.07879,315.915787 1009.58912,331.210559 C1006.09945,346.505332 958,461 958,461 C958,461 997.660888,347.060906 1001.15667,331.127528 C1004.65123,315.19293 1060.41377,227.920173 1060.50673,215.785457 C1060.59847,203.650741 1054.55729,185.068924 1054.55729,185.068924" id="Fill-39" fill="#009D63"></path>
                <path d="M1291,39.6071713 L1260.85428,87.8656551 L1224,352 L1254.12616,85.8821621 L1280.86749,42.0633317 C1284.44547,37.3684134 1287.91832,34.7229417 1291,39.6071713" id="Fill-41" fill="#009D63"></path>
                <path d="M933.332687,485 C933.332687,485 962.13024,488.913719 970.532075,493.734599 C978.931464,498.556687 960.322591,504.535979 963.241509,508.828991 C966.161652,513.122002 991,520 991,520 L919,519.928732 C919,519.928732 934.659357,513.446937 938.492504,508.745643 C942.326874,504.044349 940.880265,509.083865 942.213055,500.567903 C943.54462,492.050733 933.332687,485 933.332687,485" id="Fill-43" fill="#5FBBCB"></path>
                <path d="M1579,186 C1579,186 1544.90482,225.83577 1539.44018,277.429674 C1533.97677,329.024797 1541.39569,463 1541.39569,463 C1541.39569,463 1517.25816,305.904692 1524.28132,271.542074 C1531.30204,237.178237 1561.9812,202.092773 1561.9812,202.092773 L1579,186 Z" id="Fill-45" fill="#009D63"></path>
                <path d="M1356.37846,121.546128 C1365.41922,121.211262 1348.74257,128.733543 1341.60956,134.15863 L1341.60956,134.131743 C1341.60956,103.13212 1320.85986,78 1295.26328,78 C1272.94393,78 1254.31315,97.1118508 1249.90811,122.559284 C1244.12993,120.601413 1238.03928,119.550371 1231.74602,119.550371 C1204.63471,119.550371 1181.273,138.983645 1170.63085,166.973133 C1164.67202,161.445386 1157.22532,158.154159 1149.14026,158.154159 C1137.87806,158.154159 1127.85352,164.533738 1121.37473,174.464861 C1117.58364,171.749262 1113.16517,170.186143 1108.44279,170.186143 C1098.29497,170.186143 1089.53615,177.383335 1085.45213,187.793538 C1083.88125,191.796051 1083,196.273978 1083,201 L1099.83166,201 L1113.76203,201 L1133.8868,201 L1164.49504,201 L1184.51727,201 L1298.997,201 L1301.23553,201 L1322.68095,201" id="Fill-47" fill="#EBF7FF"></path>
                <path d="M1392,68.0215378 C1392,68.0215378 1297.89848,271.966411 1284.15539,308.848527 C1270.41229,345.729422 1176.86601,403.523361 1159.85615,427.608744 C1142.84508,451.692907 1112.17267,520.479004 1112.17267,520.479004 L1068,521 C1068,521 1110.18967,467.964572 1143.02934,427.441586 C1175.87146,386.9186 1251.40235,337.883981 1271.92425,294.686468 C1292.44615,251.488955 1359.84247,92.5949734 1359.84247,92.5949734 C1369.65252,76.1964146 1380.31556,67.5078628 1392,68.0215378" id="Fill-49" fill="#009D63"></path>
                <path d="M488.410209,216.995991 L490.571576,240 L650.094872,237.838729 L689.527035,237.838729 L752.043432,237.838729 L778.235696,237.838729 L780.605403,237.838729 L797.010596,237.838729 L830.115826,237.838729 L848.726247,237.838729 L870,237.838729 C870,230.587386 861.071871,224.709071 850.057913,224.709071 C843.579902,224.709071 837.824378,226.743638 834.181487,229.89539 C828.322402,227.929047 821.694534,226.811863 814.665825,226.811863 C807.525028,226.811863 800.794817,227.964378 794.866286,229.991636 C790.687317,222.611152 780.784502,217.071525 768.710572,215.70337 C761.340723,207.84653 750.164723,201.703843 736.874872,198.386402 C737.872707,195.587959 738.402693,192.672558 738.402693,189.674313 C738.402693,168.720708 712.605176,151.736337 680.780442,151.736337 C672.679578,151.736337 664.971025,152.837684 657.978868,154.824737 C654.046007,152.795043 649.321214,151.401304 644.152939,150.890835 C643.348822,147.460091 641.83684,144.184073 639.718115,141.127349 C630.781457,128.229168 611.037963,119.25758 588.098714,119.25758 C580.787347,119.25758 573.807372,120.178618 567.39028,121.837947 C557.497211,112.277919 540.832507,106 521.939427,106 C491.928827,106 467.551916,121.837947 467,141.509896 L488.410209,216.995991 Z" id="Fill-51" fill="#EBF7FF"></path>
                <path d="M478.765856,114.660934 C478.765856,114.660934 467.901929,104.33477 463.093866,109.39652 C461.669028,112.25581 476.648745,244.921011 495.551344,268.098109 C514.452722,291.276428 604.584981,319.628817 625.819576,331.33457 C647.054171,343.040323 744.741609,520.907213 744.741609,520.907213 L754,521 C754,521 649.894078,338.597557 624.189621,324.293781 C598.485163,309.990006 517.878681,283.647178 503.464259,260.51281 C489.051058,237.379664 478.765856,114.660934 478.765856,114.660934" id="Fill-53" fill="#009D63"></path>
            </g>
        </g>
    </g>
</svg>