<?xml version="1.0" encoding="utf-8"?>
<!-- Generator: Adobe Illustrator 24.2.3, SVG Export Plug-In . SVG Version: 6.00 Build 0)  -->
<svg version="1.1" id="Layer_1" xmlns="http://www.w3.org/2000/svg" xmlns:xlink="http://www.w3.org/1999/xlink" x="0px" y="0px"
	 viewBox="0 0 64 64" style="enable-background:new 0 0 64 64;" xml:space="preserve">
<style type="text/css">
	.st0{fill:none;stroke:#FFFFFF;stroke-width:2.881;stroke-linecap:round;stroke-linejoin:round;stroke-miterlimit:10;}
</style>
<g>
	<path class="st0" d="M53.1,52.3H11c-5.1,0-9.3-4.2-9.3-9.3V21c0-5.1,4.2-9.3,9.3-9.3h42.1c5.1,0,9.3,4.2,9.3,9.3v22
		C62.4,48.1,58.2,52.3,53.1,52.3z"/>
	<path class="st0" d="M42.1,31.4c0.6,0.3,0.6,1.2,0,1.5l-8.3,5.5l-8.2,5.7c-0.5,0.4-1.2,0-1.2-0.7l-0.2-10.6l-0.4-10.6
		c0-0.7,0.6-1.1,1.2-0.8l8.5,5.1L42.1,31.4z"/>
</g>
</svg>
