<?xml version="1.0" encoding="utf-8"?>
<!-- Generator: Adobe Illustrator 24.2.3, SVG Export Plug-In . SVG Version: 6.00 Build 0)  -->
<svg version="1.1" id="Layer_1" xmlns="http://www.w3.org/2000/svg" xmlns:xlink="http://www.w3.org/1999/xlink" x="0px" y="0px"
	 viewBox="0 0 64 64" style="enable-background:new 0 0 64 64;" xml:space="preserve">
<style type="text/css">
	.st0{fill:none;stroke:#FFFFFF;stroke-width:2.9021;stroke-linecap:round;stroke-linejoin:round;stroke-miterlimit:10;}
</style>
<g>
	<path class="st0" d="M1.9,25.9v-6.4c0-1.3,1-2.3,2.3-2.3h55.7c1.3,0,2.3,1,2.3,2.3v6.4H1.9z"/>
	<path class="st0" d="M5.3,25.9v29.7c0,1.2,1,2.2,2.2,2.2h48.8c1.2,0,2.2-1,2.2-2.2V25.9"/>
	<line class="st0" x1="29.2" y1="57.8" x2="29.2" y2="45.3"/>
	<line class="st0" x1="29.2" y1="37.8" x2="29.2" y2="25.9"/>
	<line class="st0" x1="35.9" y1="57.8" x2="35.9" y2="45.3"/>
	<line class="st0" x1="35.9" y1="37.8" x2="35.9" y2="25.9"/>
	<line class="st0" x1="5.3" y1="37.8" x2="58.5" y2="37.8"/>
	<line class="st0" x1="58.5" y1="45.3" x2="5.3" y2="45.3"/>
	<path class="st0" d="M33.1,16.5c0,0-12.4-4.6-8.7-8.7C30.2,1.3,33.1,16.5,33.1,16.5z"/>
	<path class="st0" d="M33.1,16.5c0,0,12.4-4.6,8.7-8.7C36,1.3,33.1,16.5,33.1,16.5z"/>
</g>
</svg>
