<?xml version="1.0" encoding="utf-8"?>
<!-- Generator: Adobe Illustrator 24.2.3, SVG Export Plug-In . SVG Version: 6.00 Build 0)  -->
<svg version="1.1" id="Layer_1" xmlns="http://www.w3.org/2000/svg" xmlns:xlink="http://www.w3.org/1999/xlink" x="0px" y="0px"
	 viewBox="0 0 64 64" style="enable-background:new 0 0 64 64;" xml:space="preserve">
<style type="text/css">
	.st0{fill:none;stroke:#FFFFFF;stroke-width:2.8867;stroke-linecap:round;stroke-linejoin:round;stroke-miterlimit:10;}
</style>
<g>
	<path class="st0" d="M11,29.6L11,29.6L11,29.6c8.6-5.7,15.2-14.2,18.8-24.3l0.9-2.7l1,2.7c3.6,10,10.3,18.4,19,24.1l0,0l0,0
		C42,35.2,35.4,43.7,31.9,53.7l-0.9,2.7l-1-2.7C26.3,43.7,19.7,35.3,11,29.6z"/>
	<path class="st0" d="M6.2,8.5L6.2,8.5L6.2,8.5C8.3,7.1,9.9,5,10.8,2.6L11,1.9l0.2,0.6C12.1,5,13.8,7,15.9,8.4l0,0l0,0
		c-2.1,1.4-3.7,3.5-4.6,5.9L11.1,15l-0.2-0.6C10,11.9,8.4,9.8,6.2,8.5z"/>
	<path class="st0" d="M42.7,51.9L42.7,51.9L42.7,51.9c3.3-2.2,5.8-5.4,7.1-9.2l0.4-1l0.4,1c1.4,3.8,3.9,7,7.2,9.1l0,0l0,0
		c-3.3,2.2-5.8,5.4-7.1,9.2l-0.4,1l-0.4-1C48.5,57.3,46,54.1,42.7,51.9z"/>
</g>
</svg>
