<?xml version="1.0" encoding="utf-8"?>
<!-- Generator: Adobe Illustrator 24.2.3, SVG Export Plug-In . SVG Version: 6.00 Build 0)  -->
<svg version="1.1" id="Layer_1" xmlns="http://www.w3.org/2000/svg" xmlns:xlink="http://www.w3.org/1999/xlink" x="0px" y="0px"
	 viewBox="0 0 64 64" style="enable-background:new 0 0 64 64;" xml:space="preserve">
<style type="text/css">
	.st0{fill:none;stroke:#FFFFFF;stroke-width:2.735;stroke-linecap:round;stroke-linejoin:round;stroke-miterlimit:10;}
</style>
<line class="st0" x1="35.8" y1="31.8" x2="28.2" y2="31.8"/>
<g>
	<path class="st0" d="M9.6,43.1h-7c-0.7,0-1.3-0.6-1.3-1.3v-8.1c0-0.6,0.1-1.1,0.3-1.7c1-2.5,1.9-11.5,7.9-15.6
		c2.4-1.6,7.8-1.4,10.9-1.4h16.2c5.1,0,9.8,2.9,12,7.6l2.9,6.2c0.6,1.3,1.8,2.2,3.1,2.5l4.1,0.9c2,0.4,3.4,2.1,3.6,4.1l0.1,2
		c0.2,2.6-1.9,4.8-4.5,4.8h-6.8"/>
	<line class="st0" x1="41.8" y1="43.1" x2="19.1" y2="43.1"/>
	<line class="st0" x1="8.2" y1="37" x2="1.4" y2="37"/>
	<path class="st0" d="M18.1,15.3L17.9,26c0,2.3-2,4-4.2,3.9L3.4,29.4"/>
	<path class="st0" d="M22.5,15.3l0.1,8.1c0,4.1,3.4,7.4,7.5,7.4l23.2-0.2"/>
	<circle class="st0" cx="14.4" cy="43.8" r="4.8"/>
	<circle class="st0" cx="46.5" cy="43.8" r="4.8"/>
</g>
</svg>
