<?xml version="1.0" encoding="utf-8"?>
<!-- Generator: Adobe Illustrator 24.2.3, SVG Export Plug-In . SVG Version: 6.00 Build 0)  -->
<svg version="1.1" id="Layer_1" xmlns="http://www.w3.org/2000/svg" xmlns:xlink="http://www.w3.org/1999/xlink" x="0px" y="0px"
	 viewBox="0 0 96 96" style="enable-background:new 0 0 96 96;" xml:space="preserve">
<style type="text/css">
	.st0{fill:none;stroke:#FFFFFF;stroke-width:4;stroke-linecap:round;stroke-linejoin:round;}
</style>
<g id="Layer_16">
	<path class="st0" d="M89.2,30.6l-6.8,7.3l1.3,8.1l8.7,4.8l-1.9,9.7l-9.9,1.2l-4.2,7l3.6,9.3l-7.7,6.2L64,78.9l-7.8,2.7L53,91
		l-9.9-0.2l-2.9-9.5l-7.7-2.9L24,83.5L16.5,77l3.9-9.2l-4-7.2l-9.8-1.5L5,49.3l8.9-4.5l1.6-8.1l-6.6-7.5l5.1-8.5l9.7,2.2l6.4-5.2
		l-0.2-10l9.4-3.2l6,8l8.2,0.1L59.7,5L69,8.5l-0.5,10l6.2,5.4l9.8-1.9L89.2,30.6z"/>
	<circle class="st0" cx="48.4" cy="47.4" r="21.5"/>
</g>
</svg>
