<svg xmlns="http://www.w3.org/2000/svg" viewBox="0 0 96 96"><defs><style>.cls-1{fill:none;stroke:#231f20;stroke-linecap:round;stroke-linejoin:round;stroke-width:4px;}</style></defs><g id="Layer_16" data-name="Layer 16"><path class="cls-1" d="M89.23,30.59l-6.81,7.28L83.71,46l8.74,4.81-1.89,9.73-9.89,1.2-4.23,7.05,3.6,9.3-7.7,6.24L64,78.88l-7.77,2.68L53,91l-9.91-.16-2.9-9.54-7.68-2.94L24,83.52,16.49,77l3.91-9.17-4-7.19L6.56,59.13,5,49.34l8.89-4.51,1.56-8.07L8.89,29.25l5.1-8.5L23.7,23l6.38-5.18-.2-10,9.37-3.23,6,8,8.22.13L59.71,5,69,8.51l-.53,10,6.21,5.39,9.78-1.94Z"/><circle class="cls-1" cx="48.39" cy="47.38" r="21.48"/></g></svg>