<svg xmlns="http://www.w3.org/2000/svg" viewBox="0 0 216 216"><defs><style>.cls-1{fill:#62be64;}.cls-2{fill:#5fb3ff;}.cls-3{fill:none;stroke:#f7f7f7;stroke-linecap:round;stroke-linejoin:round;stroke-width:6.03px;}</style></defs><g id="Layer_5" data-name="Layer 5"><path class="cls-1" d="M190.78,131.35A8.28,8.28,0,0,1,201,139.62c-.51,14.95-7,42-42.68,63.91C106.11,235.48,37,196,37,196S7.18,175.11,20.69,164.62s35.9-11,31-19.61S18.8,119.08,28,110.4,53.82,87.92,68.83,90.61c7.13,1.28,24.48,5.1,46.66,16.7,10.89,5.7,20,14.2,35.39,22C162.68,135.32,177.27,134.6,190.78,131.35Z"/><path class="cls-2" d="M195.49,30.92c-9.23-11-28-19.29-28-19.29S94-19,46.16,19.17C13.43,45.29,5.8,82.4,7.15,97.3a8.28,8.28,0,0,0,11.19,6.93c17.72-6.68,26.16-22.92,41.1-24.61,20.47-2.32,66.16,15.83,90.08,35,8.62,6.91,23.89,11.15,32.48,6.08,11.83-7,21-16,24.7-39.83C211.14,52.56,204,41.09,195.49,30.92ZM185.18,70.53a1.13,1.13,0,0,1-.37-.83c0-3.77-1.3-28.54-29.81-35.49a6.79,6.79,0,0,1-2.89-1.47,7.13,7.13,0,0,1,1.26-11.61s41.92,2,44.59,47.05A8.08,8.08,0,0,1,185.18,70.53Z"/><path class="cls-3" d="M68.34,149.68S112.9,181.36,173.82,158"/><line class="cls-3" x1="61.94" y1="190.64" x2="87.22" y2="170.8"/><line class="cls-3" x1="87.77" y1="196.5" x2="113.05" y2="176.66"/><line class="cls-3" x1="114.89" y1="200.56" x2="140.17" y2="180.72"/><line class="cls-3" x1="145.85" y1="152.23" x2="126.13" y2="126.86"/><line class="cls-3" x1="119.37" y1="151.65" x2="99.64" y2="126.28"/><line class="cls-3" x1="92.08" y1="149.03" x2="72.35" y2="123.66"/></g></svg>